<?xml version="1.0" encoding="iso-8859-1"?>
<svg version="1.1" id="Layer_1" 
	xmlns="http://www.w3.org/2000/svg" 
	xmlns:xlink="http://www.w3.org/1999/xlink" x="0px" y="0px" viewBox="0 0 455 455" style="enable-background:new 0 0 455 455;" xml:space="preserve">
	<path style="fill-rule:evenodd;clip-rule:evenodd;" d="M0,0v455h455V0H0z M233.38,351.601H88.609V103.399h61.034v195.707h83.736
	V351.601z M366.391,223.337c-4.002-0.854-8.589-1.573-14.748-1.573c-20.375,0-34.089,10.884-37.778,27.929
	c-0.675,3.505-1.035,7.914-1.035,12.322v89.585h-55V233.007c0-25.994-0.675-43.04-1.397-58.329h47.448l1.751,32.695h1.394
	c9.132-25.635,30.762-36.562,47.808-36.562c5.081,0,7.554,0,11.556,0.719V223.337z"/>
</svg>
