<?xml version="1.0" encoding="iso-8859-1"?>
<svg version="1.1" id="Layer_1" 
	xmlns="http://www.w3.org/2000/svg" 
	xmlns:xlink="http://www.w3.org/1999/xlink" x="0px" y="0px" viewBox="0 0 455 455" style="enable-background:new 0 0 455 455;" xml:space="preserve">
	<g>
		<path style="fill-rule:evenodd;clip-rule:evenodd;" d="M0,0v455h455V0H0z M375.046,295.603c-5.04,2.488-12.663,5.071-22.775,5.071
		c-20.159,0-50.305-5.071-75.537-17.734c-42.839,5.041-75.694,10.08-100.767,20.192c-2.583,0-2.583,0-5.072,2.583
		c-30.271,52.888-55.471,77.993-75.663,77.993c-5.039,0-7.497,0-10.079-2.457l-12.569-7.496v-2.583
		C70,366.131,70,363.675,70,358.603c2.583-12.663,17.734-35.311,48.006-52.888c5.04-2.583,12.537-7.624,22.617-12.695
		c7.529-12.536,15.151-27.688,25.231-45.266c12.569-25.231,20.192-50.463,27.688-73.079c-10.079-30.271-15.119-48.006-5.039-83.191
		c2.456-10.081,10.08-20.192,20.19-20.192h5.041c5.04,0,10.079,2.457,15.12,5.04c17.607,17.608,10.111,57.96,0,90.688v2.584
		c10.111,27.687,25.104,50.337,40.256,65.488c7.622,5.04,12.663,10.079,22.742,15.12c12.569,0,22.648-2.458,32.728-2.458
		c30.271,0,50.463,4.914,57.96,17.577C385,270.402,385,275.442,385,280.484C382.542,282.94,379.959,290.563,375.046,295.603z"/>
		<path style="fill-rule:evenodd;clip-rule:evenodd;" d="M249.045,255.251c-12.662-15.119-27.813-35.31-37.894-57.96
		c-5.04,17.608-15.151,37.8-25.105,60.417c-5.04,10.111-10.08,17.734-15.152,27.814h5.072c32.727-12.662,63-20.191,83.033-22.774
		C253.959,260.291,251.503,257.708,249.045,255.251z"/>
		<path style="fill-rule:evenodd;clip-rule:evenodd;" d="M213.735,116.715v-5.041c2.456-12.693,2.456-22.773,0-25.231v-2.582
		l-2.583-2.458c0,0,0,2.458-2.458,2.458c-5.071,15.12-5.071,32.854,0,55.471C211.152,129.253,213.735,124.212,213.735,116.715z"/>
		<path style="fill-rule:evenodd;clip-rule:evenodd;" d="M87.734,361.092c15.12-2.489,30.272-17.609,45.266-47.881
		c-5.039,2.457-9.953,5.041-12.536,7.497C102.854,335.859,90.192,353.563,87.734,361.092z"/>
		<path style="fill-rule:evenodd;clip-rule:evenodd;" d="M364.966,275.442c-2.583-2.582-12.695-10.111-48.005-10.111h-4.914v2.488
		c17.576,7.623,35.186,12.664,47.848,12.664h7.529v-2.583C367.423,277.901,364.966,277.901,364.966,275.442z"/>
	</g>
</svg>
