<svg xmlns="http://www.w3.org/2000/svg" viewBox="0 0 455 455"><g fill-rule="evenodd" clip-rule="evenodd"><path d="M267.986 121.184c-4.657 0-8.406 3.665-8.406 8.339a8.388 8.388 0 008.406 8.406 8.378 8.378 0 008.407-8.406c-.001-4.674-3.733-8.339-8.407-8.339zM187.013 121.184c-4.657 0-8.406 3.665-8.406 8.339a8.388 8.388 0 008.406 8.406 8.388 8.388 0 008.407-8.406c0-4.674-3.749-8.339-8.407-8.339z"/><path d="M0 0v455h455V0H0zm131.513 273.276c0 10.323-8.406 18.797-18.78 18.797h-.79c-10.374 0-18.78-8.474-18.78-18.797v-81.762c0-10.307 8.407-18.78 18.78-18.78h.79c10.307 0 18.78 8.474 18.78 18.78v81.762zm182.978 31.525c0 9.533-7.818 17.217-17.267 17.217h-18.461v44.202c0 10.307-8.407 18.781-18.781 18.781h-.79c-10.307 0-18.781-8.407-18.781-18.781v-44.202h-25.808v44.202c0 10.307-8.407 18.781-18.797 18.781h-.773c-10.391 0-18.797-8.407-18.797-18.781v-44.202h-18.444c-9.533 0-17.284-7.684-17.284-17.217V175.76h173.983v129.041zm.337-136.859H140.189c-.135-1.715-.269-3.413-.269-5.128 0-27.977 17.872-52.407 44.269-65.353l-14.644-22.647c-.925-1.379-.521-3.346.925-4.271 1.446-.992 3.413-.588 4.321.925l15.182 23.37c11.366-4.657 24.093-7.28 37.561-7.28 13.4 0 26.144 2.623 37.51 7.28l15.233-23.37c.925-1.513 2.824-1.917 4.271-.925 1.446.925 1.832 2.892.925 4.271L270.81 97.46c26.414 12.946 44.27 37.375 44.27 65.353 0 1.715-.135 3.413-.252 5.129zm47.01 105.334c0 10.323-8.407 18.797-18.78 18.797h-.791c-10.306 0-18.78-8.474-18.78-18.797v-81.762c0-10.307 8.406-18.78 18.78-18.78h.791c10.323 0 18.78 8.474 18.78 18.78v81.762z"/></g></svg>