<svg xmlns="http://www.w3.org/2000/svg" viewBox="0 0 455 455"><path d="M0 0v455h455V0H0zm243.813 93.855C255.174 80.547 274.37 70.645 290.205 70c2.025 18.46-5.396 36.965-16.391 50.303-11.003 13.305-29.049 23.669-46.728 22.29-2.392-18.09 6.534-36.932 16.727-48.738zm90.119 252.033c-13.14 19.193-26.739 38.296-48.203 38.695-21.11.397-27.887-12.508-52.001-12.508-24.116 0-31.66 12.109-51.607 12.905-20.714.769-36.487-20.725-49.718-39.861-27.076-39.095-47.741-110.505-19.962-158.708 13.768-23.946 38.422-39.095 65.159-39.492 20.344-.369 39.555 13.704 51.97 13.704 12.452 0 35.784-16.924 60.316-14.44 10.271.43 39.095 4.137 57.597 31.216-1.472.949-34.402 20.082-34.006 59.973.415 47.651 41.792 63.501 42.27 63.72-.369 1.101-6.624 22.596-21.815 44.796z" fill-rule="evenodd" clip-rule="evenodd"/></svg>