<svg xmlns="http://www.w3.org/2000/svg" viewBox="0 0 455 455"><g fill-rule="evenodd" clip-rule="evenodd"><path d="M227.723 98.49c-35.429 0-66.548 12.937-90.746 37.529-24.627 25.034-38.469 57.387-38.469 91.481 0 33.666 13.825 66.019 38.452 90.628 24.644 24.592 56.617 37.957 90.764 37.957 33.701 0 66.548-13.366 92.046-38.404 24.181-23.734 36.724-54.788 36.724-90.182 0-34.948-12.967-66.872-37.17-91.052-24.628-24.596-56.177-37.957-91.601-37.957zm-42.914 177.853c-27.786 0-46.996-17.601-47.014-48.843 0-30.713 20.44-48.842 46.126-48.842 17.653 0 32.847 6.444 41.75 22.68l-20.952 10.986c-4.887-10.474-13.278-12.731-17.465-12.731-15.553 0-21.14 12.031-21.14 27.908s6.628 27.926 21.14 27.926c8.374 0 15.019-3.146 19.394-13.619l19.552 9.944c-8.373 14.834-23.585 24.591-41.391 24.591zm90.987 0c-27.786 0-46.996-17.601-46.996-48.843 0-30.713 20.44-48.842 46.108-48.842 17.653 0 32.847 6.444 41.75 22.68l-20.952 10.986c-4.887-10.474-13.278-12.731-17.465-12.731-15.553 0-21.14 12.031-21.14 27.908s6.628 27.908 21.14 27.908c8.374 0 15.019-3.128 19.377-13.602l19.587 9.944c-8.391 14.835-23.603 24.592-41.409 24.592z"/><path d="M0 0v455h455V0H0zm340.069 337.969C308.949 368.611 268.774 385 227.277 385c-41.475 0-80.802-16.389-111.051-46.603C85.977 308.197 70 269.351 70 227.5c0-41.427 16.406-81.125 46.655-111.751C146.051 85.978 184.074 70 227.277 70c43.221 0 82.101 15.978 112.368 46.178C369.447 145.946 385 184.791 385 227.5c0 43.151-15.553 81.554-44.931 110.469z"/></g></svg>