<?xml version="1.0" encoding="iso-8859-1"?>
<svg version="1.1" id="Layer_1" 
	xmlns="http://www.w3.org/2000/svg" 
	xmlns:xlink="http://www.w3.org/1999/xlink" x="0px" y="0px" viewBox="0 0 455 455" style="enable-background:new 0 0 455 455;" xml:space="preserve">
	<g>
		<path style="fill-rule:evenodd;clip-rule:evenodd;" d="M319.578,145.128c-18.165-13.992-42.126-21.46-42.126-21.46l23.64-3.955
		c-18.418-14.853-41.787-23.758-67.337-23.758c-33.846,0-64.025,15.698-83.761,40.182c10.172,0.794,12.555,1.589,12.555,1.589
		s9.108-7.452,21.511-11.609c12.403-4.107,19.803-3.312,19.803-3.312s-11.558,8.33-14.853,14.126
		c-3.295,5.746-1.656,12.352-1.656,12.352s5.813,9.108,15.715,12.403c9.97,3.295,21.511,1.656,23.961,6.607
		c2.5,4.951-30.568,25.6-30.568,25.6l0.794,24.823c0,0-19.804-7.452-20.649,4.951c-0.862,12.402,12.403,30.568,33.913,24.822
		c21.46-5.812,32.224-8.313,41.332-3.362c9.108,5.019,14.059,16.56,9.108,16.56c-5.019,0-10.764,0.794-22.322,6.607
		c-11.609,5.745-25.668,17.354-47.973,11.541c0,0,33.069,30.568,67.776,19.872c34.725-10.764,47.077-38.02,47.077-38.02
		l-1.588,21.46c0,0,9.04-7.469,13.197-25.55c4.157-18.215,1.656-38.881,1.656-38.881l10.679,12.42c0,0,4.174-24.028,3.38-37.243
		c-0.862-13.197-4.951-18.148-4.951-18.148l11.541,8.973c-1.639-9.497-4.613-18.604-8.567-27.053
		C327.824,153.036,324.123,148.693,319.578,145.128z"/>
		<path style="fill-rule:evenodd;clip-rule:evenodd;" d="M0,0v455h455V0H0z M331.187,337.727
		c-65.344,56.235-151.285,43.764-199.206-0.862c-47.922-44.609-47.922-95.049-47.922-95.049l-7.452,15.782
		c0,0-0.794-19.871,1.707-32.274c2.45-12.42,5.745-19.01,5.745-19.01L70,221.167c0,0,2.501-23.961,10.764-37.175
		c8.246-13.197,16.492-21.511,16.492-21.511s-4.951-33.069,15.715-52.872c0,0,1.656,9.108,5.019,17.354
		c2.974,7.536,9.175,11.49,10.223,12.149c21.714-35.569,60.798-59.395,105.543-59.395c31.616,0,60.342,11.947,82.19,31.48
		c2.569,1.115,5.137,2.248,7.722,3.498c16.627,7.654,33.981,28.776,33.981,28.776l-4.951-22.305c0,0,10.696,10.747,15.647,27.255
		c5.019,16.56,8.263,47.128,8.263,47.128l7.452-16.509C384.06,179.041,396.462,281.491,331.187,337.727z"/>
	</g>
</svg>
