<svg xmlns="http://www.w3.org/2000/svg" viewBox="0 0 511.998 511.998"><path d="M507.968 190.186a21.319 21.319 0 00-17.301-8.853h-21.333v-64c0-11.797-9.557-21.333-21.333-21.333H264.832l-57.749-57.75A21.275 21.275 0 00192 31.999H21.333C9.557 31.999 0 41.535 0 53.332v405.333c0 .32.149.597.171.917.085 1.984.405 3.925 1.045 5.803.107.32.149.661.256.981.661 1.664 1.493 3.285 2.56 4.779.213.299.512.512.725.789.341.427.725.789 1.088 1.195a21.082 21.082 0 004.203 3.477c.363.235.683.512 1.067.725a21.962 21.962 0 006.208 2.197c.213.021.384.171.597.192a20.21 20.21 0 003.392.277h384.021a21.314 21.314 0 0020.245-14.592l85.333-256a21.38 21.38 0 00-2.943-19.219zm-81.301-8.854h-320a21.333 21.333 0 00-20.245 14.592L42.667 327.188V74.666h140.501l57.749 57.749A21.313 21.313 0 00256 138.666h170.667v42.666z"/></svg>