<svg xmlns="http://www.w3.org/2000/svg" viewBox="0 0 455 455"><g fill-rule="evenodd" clip-rule="evenodd"><path d="M227.5 101.496c-69.589 0-126.004 56.416-126.004 126.004S157.911 353.504 227.5 353.504s126.004-56.416 126.004-126.005S297.089 101.496 227.5 101.496zm35.206 195.475c-13.418 1.676-25.139-7.827-26.149-21.227-1.024-13.379 9.061-25.598 22.474-27.256 4.239-.529 8.304.052 11.93 1.536v-65.796l-62.995 11.725v82.184h-.118c.017.223.083.446.083.669 1.028 13.396-9.039 25.581-22.453 27.256-13.436 1.658-25.126-7.844-26.149-21.227-1.041-13.396 9.021-25.598 22.457-27.256 4.239-.529 8.304.07 11.926 1.553v-94.745l91.398-15.601.087-.035c.031 0 0 .411 0 .411v119.884h-.122c.052.223.087.429.105.665 1.006 13.4-9.043 25.584-22.474 27.26z"/><path d="M0 0v455h455V0H0zm227.5 385C140.512 385 70 314.488 70 227.5S140.512 70 227.5 70 385 140.512 385 227.5 314.488 385 227.5 385z"/></g></svg>