<?xml version="1.0" encoding="iso-8859-1"?>
<svg version="1.1" id="Layer_1" 
	xmlns="http://www.w3.org/2000/svg" 
	xmlns:xlink="http://www.w3.org/1999/xlink" x="0px" y="0px" viewBox="0 0 455 455" style="enable-background:new 0 0 455 455;" xml:space="preserve">
	<g>
		<path style="fill-rule:evenodd;clip-rule:evenodd;" d="M227.5,101.496c-69.589,0-126.004,56.416-126.004,126.004
		S157.911,353.504,227.5,353.504c69.589,0,126.004-56.416,126.004-126.005S297.089,101.496,227.5,101.496z M262.706,296.971
		c-13.418,1.676-25.139-7.827-26.149-21.227c-1.024-13.379,9.061-25.598,22.474-27.256c4.239-0.529,8.304,0.052,11.93,1.536v-65.796
		l-62.995,11.725v82.184h-0.118c0.017,0.223,0.083,0.446,0.083,0.669c1.028,13.396-9.039,25.581-22.453,27.256
		c-13.436,1.658-25.126-7.844-26.149-21.227c-1.041-13.396,9.021-25.598,22.457-27.256c4.239-0.529,8.304,0.07,11.926,1.553v-94.745
		l91.398-15.601l0.087-0.035c0.031,0,0,0.411,0,0.411v119.884h-0.122c0.052,0.223,0.087,0.429,0.105,0.665
		C286.186,283.111,276.137,295.295,262.706,296.971z"/>
		<path style="fill-rule:evenodd;clip-rule:evenodd;" d="M0,0v455h455V0H0z M227.5,385C140.512,385,70,314.488,70,227.5
		S140.512,70,227.5,70S385,140.512,385,227.5S314.488,385,227.5,385z"/>
	</g>
</svg>
