<svg xmlns="http://www.w3.org/2000/svg" viewBox="0 0 455 455"><g fill-rule="evenodd" clip-rule="evenodd"><path d="M157.064 305.853c-3.548-5.515-12.157-15.301-16.815-12.543-4.726 2.69-5.902 12.88-11.754 16.428-5.852 3.548-21.087 3.548-22.263 8.592-1.194 5.061 2.287 9.719 1.177 17.219-1.244 7.416-5.918 15.235-2.757 18.783 3.077 3.48 26.988 4.658 36.388 8.609 9.4 3.934 30.082 12.863 37.497 10.577 0 0 8.29-5.129 9.786-12.157 1.581-7.029-3.481-14.848-8.996-20.75-5.447-5.852-18.782-29.377-22.263-34.758zM233.522 140.661c-.857-1.648-1.379-3.75-1.379-5.852 0-5.767 3.616-10.509 7.954-10.509 4.456 0 8.004 4.741 8.004 10.509 0 4.406-2.102 8.223-5.128 9.719 1.446.606 2.758 1.194 4.019 1.716 4.994-3.027 8.408-9.332 8.408-16.614 0-10.257-6.777-18.597-15.184-18.597-8.408 0-15.168 8.34-15.168 18.597 0 3.01.589 5.835 1.581 8.34 1.9.724 4.271 1.632 6.893 2.691zM196.681 157.863c-1.984 3.413 5.902 9.854 10.106 12.611 4.204 2.707 6.441 4.927 10.376 4.406 3.951-.521 16.294-8.139 21.944-11.552 5.717-3.481 7.886-3.481 8.407-6.255.454-2.691-4.203-5.381-8.407-6.827-4.204-1.513-15.571-6.44-19.708-7.163-4.204-.774-11.165 5.128-13.855 7.634-2.692 2.421-8.863 7.146-8.863 7.146zM197.656 148.413c1.648-1.177 3.229-2.623 4.927-4.271-.201.067-.386.134-.589.202-3.548.588-7.028-3.296-7.953-8.676-.841-5.314 1.244-10.123 4.742-10.712 3.481-.521 7.029 3.363 7.937 8.609.471 2.96.067 5.785-.975 7.752.655-.656 1.379-1.244 2.152-1.9a13.548 13.548 0 014.877-2.758c.319-1.648.521-3.296.521-5.061 0-9.719-5.398-17.605-12.023-17.605-6.642 0-11.956 7.819-11.956 17.605 0 7.886 3.548 14.578 8.34 16.815z"/><path d="M0 0v455h455V0H0zm352.271 348.95c-13.2 7.348-36.707 19.102-45.519 28.435-8.794 9.265-22.515 8.794-28.888 5.314-6.373-3.413-9.787-11.233-9.787-11.233s-17.605-4.389-36.203-3.868c-18.58.454-36.253 4.406-36.253 4.406s-4.86 12.678-20.565 10.695c-15.621-1.9-34.286-12.662-50.9-14.646-16.68-1.967-33.764-5.381-30.351-16.613 3.414-11.233 6.372-16.159 3.414-24.954-2.943-8.811-2.943-16.681 9.265-19.186 12.292-2.371 19.119-5.852 22.533-13.133 3.48-7.365 7.886-8.879 7.886-8.879s-4.405-10.24 1.9-21.473c6.44-11.3 12.814-38.691 21.608-51.959 8.811-13.2 22.078-28.956 23.978-33.294 1.9-4.271 2.438-16.159 1.446-32.773-.992-16.698-7.298-51.891 13.268-66.084 20.565-14.191 58.718-16.159 73.432 17.135 14.713 33.244.992 59.257 17.151 81.789 16.159 22.465 37.178 52.346 43.551 70.926 6.373 18.665-.471 41.197-.471 41.197s7.819 6.827 7.365 17.067c-.521 10.325 6.306 15.706 14.646 19.119 8.34 3.415 10.778 14.647-2.506 22.012z"/><path d="M287.651 289.24s4.927-15.706 1.967-36.254c-2.959-20.565-32.318-85.135-35.732-88.094-3.414-2.943-26.467 14.191-36.724 17.151-10.241 2.892-24.954-14.713-24.954-14.713 2.421 7.348-2.892 23.978-9.787 31.78-6.827 7.819-11.232 31.344-18.059 42.105-6.911 10.778-11.3 32.319-5.919 45.064 5.381 12.746 35.279 26.938 36.725 37.179 1.446 10.308-8.811 11.821-8.811 11.821l13.2 15.117s11.77 2.488 35.279-.925c23.507-3.48 38.692-24.499 38.692-24.499s0-24.971 1.446-31.865c1.444-6.827 12.677-3.867 12.677-3.867zM340.198 327.864c-5.717-3.027-8.744-11.754-8.34-17.875.386-6.037-3.43-7.936-3.43-7.936s-2.69 5.65-6.491 9.45c-3.817 3.817-16.36 9.131-25.088 5.314-8.744-3.8-7.231-18.244-7.231-18.244s-3.027-.723-4.927.774c-1.9 1.513-.403 11.77 0 19.388.387 7.617-1.9 20.952-4.607 33.109-2.623 12.208 2.707 20.548 8.81 22.448 6.037 1.917 15.958-4.59 23.508-12.544 7.617-8.004 33.109-18.261 37.716-22.465 4.524-4.205-4.203-8.409-9.92-11.419z"/></g></svg>