<?xml version="1.0" encoding="iso-8859-1"?>
<svg version="1.1" id="Layer_1" 
	xmlns="http://www.w3.org/2000/svg" 
	xmlns:xlink="http://www.w3.org/1999/xlink" x="0px" y="0px" viewBox="0 0 455 455" style="enable-background:new 0 0 455 455;" xml:space="preserve">
	<g>
		<path style="fill-rule:evenodd;clip-rule:evenodd;" d="M0,0v455h455V0H0z M227.5,385c-81.548,0-147.656-66.107-147.656-147.656
		c0-67.402,45.163-124.254,106.879-141.951c-0.018-0.301-0.025-0.604-0.016-0.901c-4.882-1.244-8.406-4.32-9.276-8.423
		c-1.437-6.751,4.71-13.582,13.99-15.555c1.607-0.339,3.229-0.514,4.824-0.514c7.394,0,13.134,3.629,14.282,9.033
		c0.898,4.22-1.172,8.475-5.116,11.551c0.112,0.231,0.211,0.465,0.304,0.706c7.111-1.052,14.383-1.601,21.785-1.601
		c81.548,0,147.656,66.107,147.656,147.656C375.156,318.893,309.048,385,227.5,385z"/>
		<path style="fill-rule:evenodd;clip-rule:evenodd;" d="M254.669,225.773l-16.727,22.011l-22.008,16.73
		c2.449,1.042,5.044,1.769,7.75,2.123c1.247,0.159,2.512,0.244,3.788,0.244c2.03,0,4.097-0.211,6.167-0.652
		c3.377-0.718,6.492-1.992,9.277-3.698c10.376-6.348,16.141-18.751,13.47-31.327C255.981,229.308,255.398,227.494,254.669,225.773z" />
		<path style="fill-rule:evenodd;clip-rule:evenodd;" d="M194.491,85.195c2.794-0.592,5.558,0.072,7.72,1.598
		c2.556-1.935,3.993-4.428,3.503-6.738c-0.643-3.021-4.536-5.134-9.469-5.134c-1.253,0-2.529,0.138-3.803,0.409
		c-6.359,1.351-11.031,5.801-10.199,9.714c0.475,2.236,2.728,3.969,5.861,4.723C189.463,87.505,191.71,85.786,194.491,85.195z"/>
		<path style="fill-rule:evenodd;clip-rule:evenodd;" d="M306.675,158.167c-21.148-21.149-49.266-32.796-79.175-32.796
		c-5.077,0-10.103,0.342-15.053,1.007l-3.304,24.597l-13.044-21.158c-17.871,5.194-34.249,14.826-47.773,28.35
		c-21.152,21.149-32.799,49.266-32.799,79.178c0,5.076,0.346,10.102,1.007,15.05l24.597,3.308l-21.154,13.041
		c5.191,17.874,14.822,34.252,28.349,47.776c21.148,21.149,49.266,32.795,79.175,32.795c5.077,0,10.103-0.342,15.053-1.006
		l3.304-24.598l13.044,21.155c17.871-5.191,34.249-14.822,47.773-28.346c21.149-21.148,32.799-49.267,32.799-79.175
		c0-5.08-0.346-10.106-1.007-15.054l-24.597-3.305l21.154-13.043C329.833,188.071,320.199,171.693,306.675,158.167z
		 M258.375,222.071l36.524,0.944l-32.964,15.711c-0.171,4.548-1.258,9.012-3.208,13.173l14.18,14.93l-19.409-6.879
		c-3.005,3.473-6.639,6.278-10.728,8.291l-0.943,36.502l-15.711-32.973c-5.089-0.204-10.081-1.559-14.588-3.914l-60.592,46.052
		l46.049-60.592c-0.12-0.235-0.243-0.465-0.358-0.703l-36.526-0.944l32.964-15.708c0.174-4.551,1.261-9.016,3.208-13.176
		l-14.18-14.93l19.409,6.879c3.005-3.47,6.642-6.278,10.728-8.288l0.943-36.505l15.715,32.973
		c5.086,0.205,10.081,1.559,14.585,3.914l60.594-46.052l-46.052,60.595C258.135,221.603,258.259,221.837,258.375,222.071z"/>
		<path style="fill-rule:evenodd;clip-rule:evenodd;" d="M239.069,210.175c-2.449-1.045-5.047-1.769-7.756-2.123
		c-1.244-0.162-2.509-0.247-3.782-0.247c-2.033,0-4.101,0.214-6.17,0.652c-15.952,3.391-26.136,19.073-22.747,35.024
		c0.405,1.899,0.988,3.71,1.718,5.432l16.727-22.011L239.069,210.175z"/>
	</g>
</svg>
