<svg xmlns="http://www.w3.org/2000/svg" viewBox="0 0 455 455"><g fill-rule="evenodd" clip-rule="evenodd"><path d="M0 0v455h455V0H0zm227.5 385c-81.548 0-147.656-66.107-147.656-147.656 0-67.402 45.163-124.254 106.879-141.951a10.058 10.058 0 01-.016-.901c-4.882-1.244-8.406-4.32-9.276-8.423-1.437-6.751 4.71-13.582 13.99-15.555a23.423 23.423 0 014.824-.514c7.394 0 13.134 3.629 14.282 9.033.898 4.22-1.172 8.475-5.116 11.551.112.231.211.465.304.706a148.768 148.768 0 0121.785-1.601c81.548 0 147.656 66.107 147.656 147.656C375.156 318.893 309.048 385 227.5 385z"/><path d="M254.669 225.773l-16.727 22.011-22.008 16.73a29.561 29.561 0 007.75 2.123 29.591 29.591 0 009.955-.408 29.448 29.448 0 009.277-3.698c10.376-6.348 16.141-18.751 13.47-31.327a29.966 29.966 0 00-1.717-5.431zM194.491 85.195a9.818 9.818 0 017.72 1.598c2.556-1.935 3.993-4.428 3.503-6.738-.643-3.021-4.536-5.134-9.469-5.134a18.3 18.3 0 00-3.803.409c-6.359 1.351-11.031 5.801-10.199 9.714.475 2.236 2.728 3.969 5.861 4.723a9.813 9.813 0 016.387-4.572z"/><path d="M306.675 158.167c-21.148-21.149-49.266-32.796-79.175-32.796-5.077 0-10.103.342-15.053 1.007l-3.304 24.597-13.044-21.158c-17.871 5.194-34.249 14.826-47.773 28.35-21.152 21.149-32.799 49.266-32.799 79.178 0 5.076.346 10.102 1.007 15.05l24.597 3.308-21.154 13.041c5.191 17.874 14.822 34.252 28.349 47.776 21.148 21.149 49.266 32.795 79.175 32.795 5.077 0 10.103-.342 15.053-1.006l3.304-24.598 13.044 21.155c17.871-5.191 34.249-14.822 47.773-28.346 21.149-21.148 32.799-49.267 32.799-79.175 0-5.08-.346-10.106-1.007-15.054l-24.597-3.305 21.154-13.043c-5.191-17.872-14.825-34.25-28.349-47.776zm-48.3 63.904l36.524.944-32.964 15.711a34.007 34.007 0 01-3.208 13.173l14.18 14.93-19.409-6.879a34.045 34.045 0 01-10.728 8.291l-.943 36.502-15.711-32.973a34.543 34.543 0 01-14.588-3.914l-60.592 46.052 46.049-60.592c-.12-.235-.243-.465-.358-.703l-36.526-.944 32.964-15.708a34.11 34.11 0 013.208-13.176l-14.18-14.93 19.409 6.879a34.07 34.07 0 0110.728-8.288l.943-36.505 15.715 32.973a34.545 34.545 0 0114.585 3.914l60.594-46.052-46.052 60.595c.12.232.244.466.36.7z"/><path d="M239.069 210.175a29.457 29.457 0 00-7.756-2.123 29.308 29.308 0 00-9.952.405c-15.952 3.391-26.136 19.073-22.747 35.024a29.85 29.85 0 001.718 5.432l16.727-22.011 22.01-16.727z"/></g></svg>