<svg xmlns="http://www.w3.org/2000/svg" viewBox="0 0 50 50">
  <path d="M35.445 2.012a2.627 2.627 0 00-1.123.297 2.985 2.985 0 011.649 2.382c.018.126.029.241.029.297v40a2.993 2.993 0 01-1.691 2.69c.364.199.77.31 1.191.31.373 0 .725-.086 1.043-.232l.002.004c1.608-.832 9.647-4.995 9.943-5.164A3.013 3.013 0 0048 39.988v-30a2.99 2.99 0 00-1.322-2.484c-.32-.217-10.096-5.268-10.096-5.268l-.002.004a2.462 2.462 0 00-1.135-.228zM33 3.988a.995.995 0 00-.707.293S26.568 10.72 20.23 17.84l7.495 6.13L34 18.687V4.988a.997.997 0 00-1-1zm-25 7c-.156 0-.446 0-1.744.602-.715.33-3.205 1.639-3.205 1.639-.33.179-.596.459-.783.783.076-.012.151-.024.23-.024H2.5c.668 0 1.078.466 1.223.617 0 0 28.207 30.727 28.57 31.09a.997.997 0 001.412 0 1 1 0 00.295-.707v-13.33L9.344 11.508A2 2 0 008 10.988zm-5.8 5a.2.2 0 00-.2.201v18.606c0 .107.087.195.195.195a.189.189 0 00.14-.064L8 28.639v-6.631l-5.658-5.961a.203.203 0 00-.143-.059zm10.054 10.815s-8.595 9.65-8.693 9.748a1.493 1.493 0 01-1.061.437c-.078 0-.154-.01-.229-.021.202.35.499.64.866.818l-.004.006c.87.442 3.741 1.9 4.119 2.055a2.008 2.008 0 001.746-.123c.023-.013 8.53-7.17 8.53-7.17l-5.274-5.75z"/>
</svg>
