<?xml version="1.0" encoding="iso-8859-1"?>
<svg version="1.1" id="Layer_1" 
	xmlns="http://www.w3.org/2000/svg" 
	xmlns:xlink="http://www.w3.org/1999/xlink" x="0px" y="0px" viewBox="0 0 455 455" style="enable-background:new 0 0 455 455;" xml:space="preserve">
	<g>
		<path style="fill-rule:evenodd;clip-rule:evenodd;" d="M228.207,96.363c-71.562,0-129.763,58.196-129.791,129.727
		c-0.01,24.514,6.849,48.388,19.836,69.044l3.085,4.909l-13.106,47.875l49.103-12.881l4.737,2.812
		c19.919,11.821,42.753,18.075,66.032,18.084h0.053c71.507,0,129.707-58.201,129.736-129.737
		c0.013-34.666-13.468-67.262-37.963-91.784C295.434,109.888,262.86,96.375,228.207,96.363z M304.519,281.868
		c-3.25,9.11-18.832,17.425-26.326,18.544c-6.72,1.005-15.223,1.424-24.566-1.546c-5.664-1.797-12.929-4.197-22.234-8.215
		c-39.125-16.894-64.676-56.287-66.626-58.891c-1.95-2.603-15.925-21.148-15.925-40.346c0-19.196,10.075-28.632,13.65-32.537
		c3.575-3.904,7.801-4.88,10.4-4.88c2.6,0,5.203,0.024,7.475,0.137c2.394,0.121,5.609-0.909,8.775,6.695
		c3.25,7.81,11.05,27.008,12.025,28.96c0.975,1.952,1.625,4.229,0.325,6.833c-1.3,2.601-1.95,4.229-3.9,6.506
		c-1.95,2.277-4.096,5.085-5.85,6.833c-1.952,1.945-3.985,4.055-1.71,7.959c2.275,3.905,10.102,16.677,21.697,27.018
		c14.897,13.288,27.464,17.406,31.364,19.358c3.9,1.953,6.175,1.626,8.449-0.976c2.276-2.603,9.75-11.389,12.35-15.293
		c2.6-3.903,5.2-3.253,8.775-1.952c3.576,1.303,22.751,10.737,26.65,12.689c3.9,1.953,6.5,2.929,7.475,4.556
		C307.769,264.948,307.769,272.757,304.519,281.868z"/>
		<path style="fill-rule:evenodd;clip-rule:evenodd;" d="M0,0v455h455V0H0z M228.156,382.293h-0.064
		c-26.124-0.009-51.794-6.563-74.592-18.999L70.753,385l22.144-80.885c-13.66-23.672-20.847-50.524-20.836-78.035
		C72.096,140.018,142.119,70,228.154,70c41.756,0.017,80.947,16.273,110.417,45.777c29.47,29.503,45.691,68.72,45.675,110.427
		C384.212,312.268,314.183,382.293,228.156,382.293z"/>
	</g>
</svg>
