<svg xmlns="http://www.w3.org/2000/svg" viewBox="0 0 455 455"><g fill-rule="evenodd" clip-rule="evenodd"><path d="M187.196 171.711c0-18.44-14.076-28.108-39.035-28.108-11.918 0-18.8.719-23.521 1.438v56.891h18.081c29.005-.181 44.475-12.096 44.475-30.221zm-43.756 69.573h-18.8v68.718c5.443.854 11.918.854 21.407.854 24.959 0 46.905-9.489 46.905-35.124 0-24.6-21.945-34.448-49.512-34.448z"/><path d="M0 0v455h455V0H0zm225.647 329.474c-17.762 14.257-47.443 22.127-95.926 22.127-27.207 0-47.446-1.754-59.721-3.689V108.48c14.391-2.967 43.756-5.081 71.323-5.081 33.551 0 54.283 3.327 71.867 13.716 17.046 9.127 29.321 25.813 29.321 47.761 0 21.808-12.635 42.002-40.248 52.167v.719c27.973 7.557 48.524 28.648 48.524 60.083.135 22.127-10.03 39.533-25.14 51.629zM385 220.73c-4.002-.854-8.589-1.573-14.748-1.573-20.375 0-34.089 10.884-37.778 27.929-.675 3.505-1.035 7.914-1.035 12.322v89.585h-55V230.4c0-25.994-.675-43.04-1.397-58.329h47.448l1.751 32.694h1.394c9.132-25.635 30.762-36.562 47.808-36.562 5.081 0 7.554 0 11.556.719v51.808z"/></g></svg>