<svg xmlns="http://www.w3.org/2000/svg" viewBox="0 0 455 455"><path d="M0 0v455h455V0H0zm165.299 145.381h-59.62v63.728h55.926v40.174H105.68v102.318H57.403V103.399h107.896v41.982zm185.943 206.22h-40.776L296.75 288.59c-3.656-16.62-6.897-35.765-9.121-56.228h-.715c-2.223 20.916-6.181 39.608-10.327 56.679l-15.45 62.561h-41.229l-44.282-180.028h51.668l9.535 77.558c2.525 19.598 4.748 37.574 6.218 54.647h1.168c2.94-17.073 6.633-36.971 9.874-53.742l15.753-78.463h37.234l15.452 76.541c3.693 20.312 7.048 37.836 9.271 55.663h1.017c1.056-17.073 3.392-35.802 6.332-55.362l11.042-76.842h47.408l-46.356 180.027z" fill-rule="evenodd" clip-rule="evenodd"/></svg>