<svg xmlns="http://www.w3.org/2000/svg" viewBox="0 0 455 455"><g fill-rule="evenodd" clip-rule="evenodd"><path d="M186.199 153.546c-3.542 14.264-25.092 96.545-25.092 96.545h52.75s-23.461-82.281-26.966-96.545h-.692z"/><path d="M0 0v455h455V0H0zm240.023 351.601l-18.428-61.115h-68.192l-17.074 61.115H80.455l72.949-238.312h70.621l73.885 238.312h-57.887zm132.751 0H318.95V178.775h53.824v172.826zm-27.241-194.098c-16.935 0-28.317-12.078-27.936-26.86-.381-15.583 11.002-27.244 28.353-27.244 17.352 0 28.18 11.66 28.595 27.244 0 14.782-11.243 26.86-29.012 26.86z"/></g></svg>