<svg xmlns="http://www.w3.org/2000/svg" viewBox="0 0 455 455"><path d="M0 0v455h455V0H0zm227.509 70c59.175 0 110.528 32.619 137.476 80.778 0 0-103.321 1.076-137.818 1.332-36.751.273-67.235 26.624-73.708 61.514l-48.108-85.457C134.178 92.68 178.205 70 227.509 70zM278.4 227.492c0 28.161-22.748 50.977-50.892 50.977-28.161 0-50.977-22.816-50.977-50.977 0-28.076 22.816-50.892 50.977-50.892 28.144 0 50.892 22.816 50.892 50.892zm-208.4 0c0-30.945 9.068-59.704 24.49-84.04 0 0 49.099 80.453 62.094 108.922 12.945 28.367 38.033 50.568 70.924 50.568 9 0 17.539-1.793 25.549-4.731l-48.962 84.86C128.236 371.73 70 306.476 70 227.492zM227.509 385c-1.606 0-3.21-.205-4.816-.205 0 0 42.763-81.974 60.711-106.993 10.469-14.618 19.554-30.894 19.554-50.311 0-24.405-11.886-45.957-29.818-59.704h100.059c7.599 18.41 11.801 38.562 11.801 59.704C385 314.486 314.486 385 227.509 385z" fill-rule="evenodd" clip-rule="evenodd"/></svg>