<svg xmlns="http://www.w3.org/2000/svg" viewBox="0 0 455 455"><g fill-rule="evenodd" clip-rule="evenodd"><path d="M319.578 145.128c-18.165-13.992-42.126-21.46-42.126-21.46l23.64-3.955c-18.418-14.853-41.787-23.758-67.337-23.758-33.846 0-64.025 15.698-83.761 40.182 10.172.794 12.555 1.589 12.555 1.589s9.108-7.452 21.511-11.609c12.403-4.107 19.803-3.312 19.803-3.312s-11.558 8.33-14.853 14.126c-3.295 5.746-1.656 12.352-1.656 12.352s5.813 9.108 15.715 12.403c9.97 3.295 21.511 1.656 23.961 6.607 2.5 4.951-30.568 25.6-30.568 25.6l.794 24.823s-19.804-7.452-20.649 4.951c-.862 12.402 12.403 30.568 33.913 24.822 21.46-5.812 32.224-8.313 41.332-3.362 9.108 5.019 14.059 16.56 9.108 16.56-5.019 0-10.764.794-22.322 6.607-11.609 5.745-25.668 17.354-47.973 11.541 0 0 33.069 30.568 67.776 19.872 34.725-10.764 47.077-38.02 47.077-38.02l-1.588 21.46s9.04-7.469 13.197-25.55c4.157-18.215 1.656-38.881 1.656-38.881l10.679 12.42s4.174-24.028 3.38-37.243c-.862-13.197-4.951-18.148-4.951-18.148l11.541 8.973c-1.639-9.497-4.613-18.604-8.567-27.053-3.041-4.629-6.742-8.972-11.287-12.537z"/><path d="M0 0v455h455V0H0zm331.187 337.727c-65.344 56.235-151.285 43.764-199.206-.862-47.922-44.609-47.922-95.049-47.922-95.049l-7.452 15.782s-.794-19.871 1.707-32.274c2.45-12.42 5.745-19.01 5.745-19.01L70 221.167s2.501-23.961 10.764-37.175c8.246-13.197 16.492-21.511 16.492-21.511s-4.951-33.069 15.715-52.872c0 0 1.656 9.108 5.019 17.354 2.974 7.536 9.175 11.49 10.223 12.149 21.714-35.569 60.798-59.395 105.543-59.395 31.616 0 60.342 11.947 82.19 31.48 2.569 1.115 5.137 2.248 7.722 3.498 16.627 7.654 33.981 28.776 33.981 28.776l-4.951-22.305s10.696 10.747 15.647 27.255c5.019 16.56 8.263 47.128 8.263 47.128l7.452-16.509c0 .001 12.402 102.451-52.873 158.687z"/></g></svg>