<svg xmlns="http://www.w3.org/2000/svg" viewBox="0 0 455 455"><g fill-rule="evenodd" clip-rule="evenodd"><path d="M291.66 281.989c-26.425-15.854-57.133-23.767-91.591-23.767-20.121 0-39.494 2.534-58.958 6.973-4.755.908-8.554 4.207-8.554 10.819 0 5.159 3.97 9.898 9.958 9.898 1.941 0 5.175-.985 7.757-1.549 15.87-3.298 32.833-5.456 49.688-5.456 30.192 0 58.662 7.257 81.489 21.062 2.378 1.453 4.111 2.33 6.66 2.33 5.175 0 9.79-4.159 9.79-9.851.001-5.832-2.301-8.177-6.239-10.459zm18.7-46.142c-31.348-18.76-71.234-29.035-112.465-29.035-26.313 0-44.389 3.755-62.1 8.618-6.536 1.845-9.79 6.456-9.79 13.149 0 6.832 5.536 12.352 12.304 12.352 2.862 0 4.583-.909 7.661-1.769 14.245-3.783 31.46-6.58 51.409-6.58 38.869 0 74.376 10.099 100.005 25.296 2.33 1.361 4.471 2.738 7.893 2.738 6.849 0 12.276-5.503 12.276-12.32-.001-5.6-1.942-9.431-7.193-12.449z"/><path d="M0 0v455h455V0H0zm227.494 384.992C140.514 384.992 70 314.478 70 227.498c0-86.992 70.514-157.49 157.494-157.49C314.47 70.008 385 140.506 385 227.498c0 86.98-70.53 157.494-157.506 157.494z"/><path d="M331.561 183.081c-35.539-20.873-84.211-30.38-130.444-30.38-27.254 0-52.302 3.078-74.769 9.694-5.708 1.689-11.007 6.488-11.007 15.038 0 8.413 6.444 15.058 14.838 15.058 2.91 0 5.784-1.157 8.085-1.721 19.873-5.391 41.559-7.565 62.913-7.565 42.78 0 87.012 9.41 115.531 26.501 3.002 1.641 4.907 2.422 8.097 2.422 7.957 0 14.854-6.16 14.87-14.742 0-7.504-3.331-11.587-8.114-14.305z"/></g></svg>