<svg xmlns="http://www.w3.org/2000/svg" viewBox="0 0 455 455"><g fill-rule="evenodd" clip-rule="evenodd"><path d="M228.207 96.363c-71.562 0-129.763 58.196-129.791 129.727-.01 24.514 6.849 48.388 19.836 69.044l3.085 4.909-13.106 47.875 49.103-12.881 4.737 2.812c19.919 11.821 42.753 18.075 66.032 18.084h.053c71.507 0 129.707-58.201 129.736-129.737.013-34.666-13.468-67.262-37.963-91.784-24.495-24.524-57.069-38.037-91.722-38.049zm76.312 185.505c-3.25 9.11-18.832 17.425-26.326 18.544-6.72 1.005-15.223 1.424-24.566-1.546-5.664-1.797-12.929-4.197-22.234-8.215-39.125-16.894-64.676-56.287-66.626-58.891-1.95-2.603-15.925-21.148-15.925-40.346 0-19.196 10.075-28.632 13.65-32.537 3.575-3.904 7.801-4.88 10.4-4.88 2.6 0 5.203.024 7.475.137 2.394.121 5.609-.909 8.775 6.695 3.25 7.81 11.05 27.008 12.025 28.96.975 1.952 1.625 4.229.325 6.833-1.3 2.601-1.95 4.229-3.9 6.506s-4.096 5.085-5.85 6.833c-1.952 1.945-3.985 4.055-1.71 7.959 2.275 3.905 10.102 16.677 21.697 27.018 14.897 13.288 27.464 17.406 31.364 19.358 3.9 1.953 6.175 1.626 8.449-.976 2.276-2.603 9.75-11.389 12.35-15.293 2.6-3.903 5.2-3.253 8.775-1.952 3.576 1.303 22.751 10.737 26.65 12.689 3.9 1.953 6.5 2.929 7.475 4.556.977 1.628.977 9.437-2.273 18.548z"/><path d="M0 0v455h455V0H0zm228.156 382.293h-.064c-26.124-.009-51.794-6.563-74.592-18.999L70.753 385l22.144-80.885c-13.66-23.672-20.847-50.524-20.836-78.035C72.096 140.018 142.119 70 228.154 70c41.756.017 80.947 16.273 110.417 45.777 29.47 29.503 45.691 68.72 45.675 110.427-.034 86.064-70.063 156.089-156.09 156.089z"/></g></svg>